Patient4_TMGait_0pt4_02_left_40_GRF.mot
version=1
nRows=78
nColumns=19
inDegrees=no
endheader
time	F1x	F1y	F1z	M1x	M1y	M1z	F2x	F2y	F2z	M2x	M2y	M2z	EC1x	EC1y	EC1z	EC2x	EC2y	EC2z
53.4	-2.917	14.1304	1.7542	-4.2659	-2.0656	18.7771	-29.4459	755.3365	-66.5762	269.3996	83.9309	808.9484	-0.0592	0.0182	-0.0073	-0.0462	0.0165	0.9585
53.4126	-2.0753	10.4497	1.1521	-3.1868	-1.3835	13.7815	-26.5256	760.2192	-65.2714	270.4881	81.5644	811.4267	-0.0592	0.0182	-0.0073	-0.0462	0.0165	0.9585
53.4251	-1.3196	7.3445	0.665	-2.2837	-0.82394	9.554	-23.5446	765.7883	-63.8934	271.9535	79.0026	814.2193	-0.0592	0.0182	-0.0073	-0.0462	0.0165	0.9585
53.4377	-0.69863	4.9903	0.30499	-1.6059	-0.40166	6.3272	-20.5882	771.8689	-62.5663	273.7588	76.4082	817.2369	-0.0592	0.0182	-0.0073	-0.0462	0.0165	0.9585
53.4503	-0.26824	3.3911	0.064311	-1.1513	-0.11921	4.1294	-17.6898	778.1434	-61.375	275.7777	73.8975	820.236	-0.0592	0.0182	-0.0073	-0.0462	0.0165	0.9585
53.4629	0.010583	2.4152	-0.076344	-0.88017	0.052772	2.7667	-14.9034	784.0819	-60.3867	277.7922	71.5711	822.759	-0.0592	0.0182	-0.0073	-0.0462	0.0165	0.9585
53.4754	0.13952	1.8925	-0.13642	-0.73812	0.12934	2.0303	-12.2619	789.0072	-59.5827	279.5301	69.4334	824.19	-0.0592	0.0182	-0.0073	-0.0462	0.0165	0.9585
53.488	0.15784	1.6231	-0.13998	-0.66393	0.1381	1.6406	-9.8	792.2171	-58.9011	280.7146	67.4463	823.8836	-0.0592	0.0182	-0.0073	-0.0462	0.0165	0.9585
53.5006	0.085634	1.4362	-0.093327	-0.60073	0.08065	1.3819	-7.5504	793.1377	-58.2356	281.1216	65.5287	821.3148	-0.0592	0.0182	-0.0073	-0.0462	0.0165	0.9585
53.5131	-0.051754	1.1488	-0.02047	-0.49235	-0.024623	1.0274	-5.5045	791.4625	-57.5081	280.6249	63.6161	816.2216	-0.0592	0.0182	-0.0073	-0.0462	0.0165	0.9585
53.5257	-0.23586	0.60506	0.078736	-0.28721	-0.18326	0.38577	-3.6473	787.15	-56.6957	279.1949	61.6935	808.6001	-0.0592	0.0182	-0.0073	-0.0462	0.0165	0.9585
53.5383	-0.44747	-0.29868	0.17873	0.05086	-0.36665	-0.66087	-1.9457	780.4188	-55.8514	276.8949	59.8146	798.6887	-0.0592	0.0182	-0.0073	-0.0462	0.0165	0.9585
53.5509	-0.63194	-1.6403	0.27649	0.54729	-0.55025	-2.2049	-0.33593	771.7735	-55.0652	273.8902	58.0541	786.9985	-0.0592	0.0182	-0.0073	-0.0462	0.0165	0.9585
53.5634	-0.76304	-3.3733	0.33424	1.1846	-0.67635	-4.1863	1.2923	761.9414	-54.4434	270.4281	56.4809	774.2378	-0.0592	0.0182	-0.0073	-0.0462	0.0165	0.9585
53.576	-0.73949	-5.3352	0.34006	1.9009	-0.68575	-6.4337	3.0494	751.7779	-54.0759	266.805	55.143	761.2397	-0.0592	0.0182	-0.0073	-0.0462	0.0165	0.9585
53.5886	-0.47449	-7.1512	0.24157	2.5578	-0.48464	-8.5092	5.0574	742.1184	-54.0413	263.3114	54.0699	748.8073	-0.0592	0.0182	-0.0073	-0.0462	0.0165	0.9585
53.6011	0.18131	-8.167	0.012674	2.9146	0.011963	-9.6873	7.4025	733.6251	-54.3865	260.1757	53.2695	737.5674	-0.0592	0.0182	-0.0073	-0.0462	0.0165	0.9585
53.6137	1.3745	-7.3784	-0.40997	2.604	0.92485	-8.8277	10.1171	726.6375	-55.1239	257.5093	52.731	727.8419	-0.0592	0.0182	-0.0073	-0.0462	0.0165	0.9585
53.6263	3.2636	-3.432	-1.0646	1.1331	2.3514	-4.3956	13.1766	721.0512	-56.2314	255.2651	52.4305	719.5391	-0.0592	0.0182	-0.0073	-0.0462	0.0165	0.9585
53.6389	5.9388	5.3814	-1.996	-2.1159	4.3667	5.55	16.4578	716.2862	-57.6252	253.229	52.3221	712.1413	-0.0592	0.0182	-0.0073	-0.0462	0.0165	0.9585
53.6514	9.3699	20.9206	-3.1906	-7.8147	6.9357	23.1332	19.7818	711.3347	-59.177	251.0421	52.3416	704.736	-0.0592	0.0182	-0.0073	-0.0462	0.0165	0.9585
53.664	13.3219	44.8808	-4.5651	-16.575	9.8612	50.2906	22.8809	704.9227	-60.6856	248.2564	52.3859	696.1893	-0.0592	0.0182	-0.0073	-0.0462	0.0165	0.9585
53.6766	17.1872	78.2323	-5.8954	-28.7364	12.6528	88.153	25.4442	695.6066	-61.91	244.3789	52.3314	685.2006	-0.0592	0.0182	-0.0073	-0.0462	0.0165	0.9585
53.6891	19.9057	120.2823	-6.8032	-44.0329	14.4776	135.9638	27.1241	682.0459	-62.5656	238.9642	52.0284	670.588	-0.0592	0.0182	-0.0073	-0.0462	0.0165	0.9585
53.7017	19.9184	167.6418	-6.6789	-61.21	14.0875	189.959	27.6589	663.2273	-62.3802	231.6961	51.3223	651.4484	-0.0592	0.0182	-0.0073	-0.0462	0.0165	0.9585
53.7143	16.54	214.2302	-4.7404	-78.0014	10.3707	243.3492	26.9086	638.811	-61.1505	222.5028	50.0883	627.475	-0.0592	0.0182	-0.0073	-0.0462	0.0165	0.9585
53.7269	10.9603	253.9223	-0.45557	-92.1487	3.2668	289.1657	25.0125	609.4729	-58.8738	211.664	48.3086	599.2313	-0.0592	0.0182	-0.0073	-0.0462	0.0165	0.9585
53.7394	4.6689	285.2452	5.1844	-103.1288	-5.5855	325.5347	22.3625	576.9168	-55.7996	199.7934	46.1095	568.1878	-0.0592	0.0182	-0.0073	-0.0462	0.0165	0.9585
53.752	-1.2408	310.3802	11.667	-111.7463	-15.1753	354.7619	19.4776	543.0724	-52.3662	187.5708	43.7288	536.0027	-0.0592	0.0182	-0.0073	-0.0462	0.0165	0.9585
53.7646	-6.2909	332.491	18.2137	-119.1932	-24.4682	380.3476	16.885	509.3248	-48.929	175.4795	41.3114	503.8159	-0.0592	0.0182	-0.0073	-0.0462	0.0165	0.9585
53.7771	-10.594	354.2642	24.511	-126.4731	-33.1205	405.3074	14.9282	476.2217	-45.6164	163.7105	38.8425	472.0238	-0.0592	0.0182	-0.0073	-0.0462	0.0165	0.9585
53.7897	-14.4033	377.4656	30.1076	-134.2573	-40.7323	431.5674	13.7109	443.5672	-42.3684	152.1946	36.212	440.3748	-0.0592	0.0182	-0.0073	-0.0462	0.0165	0.9585
53.8023	-17.7073	403.2099	34.9321	-142.9514	-47.2062	460.2745	13.1624	410.7208	-39.017	140.7042	33.2715	408.2476	-0.0592	0.0182	-0.0073	-0.0462	0.0165	0.9585
53.8149	-20.2721	432.2413	39.0303	-152.8086	-52.5194	492.1493	13.0725	376.8889	-35.4341	128.9545	29.9583	374.9103	-0.0592	0.0182	-0.0073	-0.0462	0.0165	0.9585
53.8274	-21.9314	464.5452	42.7972	-163.7747	-57.0411	527.1177	13.1627	341.3645	-31.5464	116.6911	26.286	339.7222	-0.0592	0.0182	-0.0073	-0.0462	0.0165	0.9585
53.84	-22.7292	499.264	46.6717	-175.4885	-61.2755	564.2224	13.105	303.7911	-27.3804	103.7743	22.3815	302.415	-0.0592	0.0182	-0.0073	-0.0462	0.0165	0.9585
53.8526	-22.8454	535.3486	50.9312	-187.5226	-65.6023	602.3545	12.6054	264.2975	-23.0094	90.2368	18.4094	263.1772	-0.0592	0.0182	-0.0073	-0.0462	0.0165	0.9585
53.8651	-22.406	571.9752	55.6905	-199.5534	-70.2059	640.6289	11.4323	223.654	-18.6073	76.3303	14.6084	222.8277	-0.0592	0.0182	-0.0073	-0.0462	0.0165	0.9585
53.8777	-21.5977	608.5635	60.8441	-211.3667	-75.046	678.4838	9.5637	183.196	-14.3815	62.5011	11.1855	182.7012	-0.0592	0.0182	-0.0073	-0.0462	0.0165	0.9585
53.8903	-20.486	644.5143	66.2663	-222.7687	-80.0105	715.3221	7.1365	144.5704	-10.566	49.3029	8.3178	144.4231	-0.0592	0.0182	-0.0073	-0.0462	0.0165	0.9585
53.9029	-19.2006	679.0487	71.6519	-233.5163	-84.8289	750.3838	4.4678	109.3928	-7.326	37.2835	6.0578	109.5589	-0.0592	0.0182	-0.0073	-0.0462	0.0165	0.9585
53.9154	-17.8194	711.0513	76.8083	-243.2632	-89.3294	782.5139	1.9384	78.9014	-4.7641	26.8663	4.381	79.3062	-0.0592	0.0182	-0.0073	-0.0462	0.0165	0.9585
53.928	-16.4659	739.3535	81.3979	-251.6523	-93.2216	810.5105	-0.15891	53.7493	-2.8405	18.2791	3.1595	54.3023	-0.0592	0.0182	-0.0073	-0.0462	0.0165	0.9585
53.9406	-15.1834	762.8452	85.278	-258.3522	-96.3838	833.2304	-1.6323	34.0192	-1.4874	11.5522	2.2765	34.6265	-0.0592	0.0182	-0.0073	-0.0462	0.0165	0.9585
53.9531	-14.0078	780.65	88.2159	-263.1184	-98.607	849.7851	-2.4213	19.4208	-0.58662	6.5825	1.6097	20.0221	-0.0592	0.0182	-0.0073	-0.0462	0.0165	0.9585
53.9657	-12.9302	792.202	90.2264	-265.8092	-99.9037	859.6254	-2.5703	9.3412	-0.057302	3.1589	1.1033	9.8925	-0.0592	0.0182	-0.0073	-0.0462	0.0165	0.9585
53.9783	-11.9384	797.3517	91.2124	-266.4319	-100.1828	862.6198	-2.3102	3.0549	0.2115	1.028	0.72635	3.5471	-0.0592	0.0182	-0.0073	-0.0462	0.0165	0.9585
53.9909	-11.0348	796.4132	91.2754	-265.1449	-99.5507	859.1472	-1.8407	-0.31713	0.28455	-0.11149	0.47997	0.11729	-0.0592	0.0182	-0.0073	-0.0462	0.0165	0.9585
54.0034	-10.1643	790.249	90.3851	-262.296	-97.9818	850.1147	-1.3398	-1.6512	0.25032	-0.55637	0.32785	-1.2555	-0.0592	0.0182	-0.0073	-0.0462	0.0165	0.9585
54.016	-9.2878	780.1715	88.7066	-258.3739	-95.6401	836.9238	-0.87926	-1.7141	0.1438	-0.566	0.25931	-1.3418	-0.0592	0.0182	-0.0073	-0.0462	0.0165	0.9585
54.0286	-8.3062	767.7797	86.2892	-253.9619	-92.562	821.2049	-0.5049	-1.075	0.016141	-0.33449	0.241	-0.71057	-0.0592	0.0182	-0.0073	-0.0462	0.0165	0.9585
54.0411	-7.1506	754.7696	83.3743	-249.6522	-88.9594	804.7078	-0.23524	-0.16075	-0.11646	-0.0066202	0.26404	0.20602	-0.0592	0.0182	-0.0073	-0.0462	0.0165	0.9585
54.0537	-5.7118	742.7475	80.0734	-245.999	-84.9054	789.033	-0.057721	0.78436	-0.22495	0.33307	0.29816	1.161	-0.0592	0.0182	-0.0073	-0.0462	0.0165	0.9585
54.0663	-3.95	733.1253	76.6329	-243.4681	-80.6064	775.5884	0.046201	1.629	-0.31393	0.63778	0.3413	2.0252	-0.0592	0.0182	-0.0073	-0.0462	0.0165	0.9585
54.0789	-1.7849	727.014	73.1415	-242.4148	-76.1054	765.4198	0.10037	2.3058	-0.3716	0.88581	0.37327	2.7217	-0.0592	0.0182	-0.0073	-0.0462	0.0165	0.9585
54.0914	0.8159	725.079	69.8029	-243.0247	-71.5605	759.1535	0.11427	2.8324	-0.40881	1.0799	0.40383	3.2739	-0.0592	0.0182	-0.0073	-0.0462	0.0165	0.9585
54.104	3.8901	727.4922	66.6829	-245.307	-67.0098	756.9127	0.11794	3.2321	-0.42666	1.2274	0.42477	3.6935	-0.0592	0.0182	-0.0073	-0.0462	0.0165	0.9585
54.1166	7.439	733.892	63.9539	-249.072	-62.6073	758.3281	0.090734	3.531	-0.43391	1.3372	0.44545	4.019	-0.0592	0.0182	-0.0073	-0.0462	0.0165	0.9585
54.1291	11.481	743.4101	61.6609	-253.9553	-58.3953	762.5373	0.064433	3.7497	-0.43165	1.4172	0.46059	4.2637	-0.0592	0.0182	-0.0073	-0.0462	0.0165	0.9585
54.1417	15.9888	754.7745	59.9401	-259.4475	-54.5162	768.3188	0.023212	3.8983	-0.43066	1.4684	0.48511	4.4423	-0.0592	0.0182	-0.0073	-0.0462	0.0165	0.9585
54.1543	20.907	766.5236	58.7915	-264.9824	-51.0018	774.2928	-0.031214	3.9371	-0.42419	1.4774	0.50943	4.4973	-0.0592	0.0182	-0.0073	-0.0462	0.0165	0.9585
54.1669	26.0868	777.2505	58.2404	-270.0169	-47.9359	779.1916	-0.094238	3.8289	-0.42339	1.4283	0.54051	4.3843	-0.0592	0.0182	-0.0073	-0.0462	0.0165	0.9585
54.1794	31.3416	785.809	58.1869	-274.1101	-45.3066	782.0444	-0.1622	3.4869	-0.42077	1.291	0.56956	3.9924	-0.0592	0.0182	-0.0073	-0.0462	0.0165	0.9585
54.192	36.416	791.3913	58.5639	-276.9475	-43.1471	782.2425	-0.23807	2.7971	-0.41648	1.0245	0.59425	3.1878	-0.0592	0.0182	-0.0073	-0.0462	0.0165	0.9585
54.2046	41.0795	793.5739	59.2493	-278.361	-41.4383	779.5279	-0.30296	1.6607	-0.40214	0.58958	0.59857	1.8489	-0.0592	0.0182	-0.0073	-0.0462	0.0165	0.9585
54.2171	45.1176	792.3	60.1614	-278.3185	-40.1882	773.9774	-0.34198	-0.041443	-0.37263	-0.054733	0.57036	-0.16366	-0.0592	0.0182	-0.0073	-0.0462	0.0165	0.9585
54.2297	48.4047	787.8326	61.1841	-276.9127	-39.3474	765.93	-0.34257	-2.3525	-0.31133	-0.92296	0.48299	-2.8775	-0.0592	0.0182	-0.0073	-0.0462	0.0165	0.9585
54.2423	50.8467	780.6649	62.2485	-274.3263	-38.8925	755.9125	-0.24464	-5.1958	-0.20585	-1.9851	0.30209	-6.203	-0.0592	0.0182	-0.0073	-0.0462	0.0165	0.9585
54.2549	52.4461	771.4313	63.3051	-270.7971	-38.792	744.5397	-0.021962	-8.294	-0.033706	-3.1351	-0.0082677	-9.8143	-0.0592	0.0182	-0.0073	-0.0462	0.0165	0.9585
54.2674	53.2403	760.8173	64.3392	-266.5813	-39.0268	732.4459	0.39324	-11.0547	0.21983	-4.1487	-0.48589	-13.036	-0.0592	0.0182	-0.0073	-0.0462	0.0165	0.9585
54.28	53.3351	749.5069	65.3673	-261.9323	-39.5854	720.2303	1.0417	-12.4412	0.56874	-4.6406	-1.1609	-14.6586	-0.0592	0.0182	-0.0073	-0.0462	0.0165	0.9585
54.2926	52.8913	738.047	66.424	-257.0547	-40.4452	708.3341	1.9519	-10.9375	1.0102	-4.0439	-2.0338	-12.9165	-0.0592	0.0182	-0.0073	-0.0462	0.0165	0.9585
54.3051	52.1299	726.7245	67.5428	-252.0661	-41.5573	696.9403	3.1154	-4.4458	1.5159	-1.581	-3.05	-5.3513	-0.0592	0.0182	-0.0073	-0.0462	0.0165	0.9585
54.3177	51.2951	715.4959	68.6813	-246.9842	-42.7913	685.8901	4.4585	9.6116	2.0054	3.7026	-4.0632	11.0549	-0.0592	0.0182	-0.0073	-0.0462	0.0165	0.9585
54.3303	50.5928	703.9467	69.7154	-241.7152	-43.9603	674.6892	5.7754	34.045	2.345	12.8436	-4.8132	39.5891	-0.0592	0.0182	-0.0073	-0.0462	0.0165	0.9585
54.3429	50.1523	691.1756	70.3803	-236.0216	-44.7726	662.3962	6.7095	71.3851	2.3068	26.7651	-4.8741	83.204	-0.0592	0.0182	-0.0073	-0.0462	0.0165	0.9585
54.3554	49.9567	675.8266	70.3404	-229.5202	-44.9211	647.6945	6.697	122.9283	1.5752	45.9236	-3.6464	143.4012	-0.0592	0.0182	-0.0073	-0.0462	0.0165	0.9585
54.368	49.8708	656.1459	69.1794	-221.6971	-44.062	628.9038	4.9088	187.3538	-0.26031	69.7948	-0.34352	218.6282	-0.0592	0.0182	-0.0073	-0.0462	0.0165	0.9585
